<mxfile host="Electron" modified="2024-03-13T13:48:43.453Z" agent="Mozilla/5.0 (Windows NT 10.0; Win64; x64) AppleWebKit/537.36 (KHTML, like Gecko) draw.io/24.0.4 Chrome/120.0.6099.109 Electron/28.1.0 Safari/537.36" etag="Q9xKSTmHX8lYNnEovxyN" version="24.0.4" type="device">
  <diagram id="prtHgNgQTEPvFCAcTncT" name="Page-1">
    <mxGraphModel dx="2440" dy="1407" grid="1" gridSize="10" guides="1" tooltips="1" connect="1" arrows="1" fold="1" page="1" pageScale="1" pageWidth="1169" pageHeight="827" math="0" shadow="0">
      <root>
        <mxCell id="0" />
        <mxCell id="1" parent="0" />
        <mxCell id="dNxyNK7c78bLwvsdeMH5-11" value="QuickTools 软件架构" style="swimlane;html=1;startSize=30;horizontal=1;containerType=tree;glass=0;" parent="1" vertex="1">
          <mxGeometry x="230" y="259" width="710" height="310" as="geometry">
            <mxRectangle x="240" y="200" width="140" height="30" as="alternateBounds" />
          </mxGeometry>
        </mxCell>
        <mxCell id="BtBNi192V-e6z5Mow_dS-1" value="用户层" style="rounded=1;whiteSpace=wrap;html=1;fillColor=#62C4FC;strokeColor=#6c8ebf;" vertex="1" parent="dNxyNK7c78bLwvsdeMH5-11">
          <mxGeometry x="50" y="50" width="650" height="40" as="geometry" />
        </mxCell>
        <mxCell id="BtBNi192V-e6z5Mow_dS-2" value="图像处理/深度学习/其他工具" style="rounded=1;whiteSpace=wrap;html=1;fillColor=#fff2cc;strokeColor=#d6b656;" vertex="1" parent="dNxyNK7c78bLwvsdeMH5-11">
          <mxGeometry x="50" y="100" width="650" height="40" as="geometry" />
        </mxCell>
        <mxCell id="BtBNi192V-e6z5Mow_dS-3" value="Qt C++" style="rounded=1;whiteSpace=wrap;html=1;direction=south;fillColor=#99FF99;strokeColor=#82b366;" vertex="1" parent="dNxyNK7c78bLwvsdeMH5-11">
          <mxGeometry x="10" y="50" width="30" height="140" as="geometry" />
        </mxCell>
        <mxCell id="BtBNi192V-e6z5Mow_dS-4" value="QuickToolKits 工具库" style="rounded=1;whiteSpace=wrap;html=1;fillColor=#FFFF00;strokeColor=#d6b656;" vertex="1" parent="dNxyNK7c78bLwvsdeMH5-11">
          <mxGeometry x="50" y="203" width="650" height="40" as="geometry" />
        </mxCell>
        <mxCell id="BtBNi192V-e6z5Mow_dS-6" value="C++" style="rounded=1;whiteSpace=wrap;html=1;fillColor=#FF0000;strokeColor=#d6b656;" vertex="1" parent="dNxyNK7c78bLwvsdeMH5-11">
          <mxGeometry x="50" y="250" width="650" height="40" as="geometry" />
        </mxCell>
        <mxCell id="BtBNi192V-e6z5Mow_dS-8" value="日志系统" style="rounded=1;whiteSpace=wrap;html=1;fillColor=#fff2cc;strokeColor=#d6b656;" vertex="1" parent="dNxyNK7c78bLwvsdeMH5-11">
          <mxGeometry x="50" y="150" width="310" height="40" as="geometry" />
        </mxCell>
        <mxCell id="BtBNi192V-e6z5Mow_dS-7" value="工具业务系统（运行逻辑）" style="rounded=1;whiteSpace=wrap;html=1;fillColor=#fff2cc;strokeColor=#d6b656;" vertex="1" parent="dNxyNK7c78bLwvsdeMH5-11">
          <mxGeometry x="370" y="150" width="330" height="40" as="geometry" />
        </mxCell>
      </root>
    </mxGraphModel>
  </diagram>
</mxfile>
